<svg xmlns="http://www.w3.org/2000/svg" width="800" height="800" fill="none" viewBox="-3.5 0 32 32"><path fill="#418ED6" d="M9.73779 18.8436L12.9509 20.6987L6.42609 32.0001L4.55333 27.8234L9.73779 18.8436Z"/><path fill="#2B63A6" d="M9.73779 18.8436L6.52467 16.9885L-0.000155079 28.2899L4.55333 27.8234L9.73779 18.8436Z"/><path fill="#2B63A6" d="M14.3218 18.8436L11.1087 20.6987L17.6335 32.0001L19.5062 27.8234L14.3218 18.8436Z"/><path fill="#418ED6" d="M14.3218 18.8436L17.5349 16.9885L24.0597 28.2899L19.5062 27.8234L14.3218 18.8436Z"/><circle cx="12.025" cy="11.062" r="11.062" fill="#E3E3E3"/><circle cx="12.025" cy="11.062" r="8.635" fill="#595959"/><mask id="mask0_103_1231" style="mask-type:alpha" width="19" height="18" x="3" y="3" maskUnits="userSpaceOnUse"><circle cx="12.486" cy="11.984" r="8.655" fill="#C28B37"/></mask><g mask="url(#mask0_103_1231)"><circle cx="12.025" cy="11.062" r="8.655" fill="url(#paint0_linear_103_1231)"/></g><path fill="url(#paint1_linear_103_1231)" d="M12.0713 5.04102L13.9383 8.77508L17.6724 9.24183L15.1083 12.1171L15.8054 16.2432L12.0713 14.3762L8.33724 16.2432L9.04049 12.1171L6.47021 9.24183L10.2043 8.77508L12.0713 5.04102Z"/><defs><linearGradient id="paint0_linear_103_1231" x1="12.025" x2="12.025" y1="2.407" y2="19.717" gradientUnits="userSpaceOnUse"><stop stop-color="#9CA1A3"/><stop offset="1" stop-color="#9CA1A3" stop-opacity="0"/></linearGradient><linearGradient id="paint1_linear_103_1231" x1="12.071" x2="12.071" y1="5.041" y2="16.243" gradientUnits="userSpaceOnUse"><stop stop-color="#F1F5F5"/><stop offset="0" stop-color="#fff"/><stop offset="1" stop-color="#F1F5F5"/></linearGradient></defs></svg>